<svg width="105" height="36" viewBox="0 0 105 36" fill="none" xmlns="http://www.w3.org/2000/svg">
<rect width="105" height="36" fill="#FFE52B"/>
<path d="M8.10547 20.5449L8.22266 19.8516H12.041L11.9336 20.4863C11.875 20.9811 11.9238 21.375 12.0801 21.668C12.2363 21.9544 12.5326 22.0977 12.9688 22.0977C13.3919 22.0977 13.7012 21.9772 13.8965 21.7363C14.0983 21.4889 14.2253 21.1699 14.2773 20.7793C14.3359 20.3691 14.3327 20.0241 14.2676 19.7441C14.209 19.4642 13.6458 19.1191 12.5781 18.709C11.4388 18.2467 10.5566 17.6576 9.93164 16.9414C9.31315 16.2188 9.08854 15.3171 9.25781 14.2363C9.45312 12.9277 10.0456 11.8991 11.0352 11.1504C12.0247 10.4017 13.291 10.0273 14.834 10.0273C16.3704 10.0273 17.4967 10.4245 18.2129 11.2188C18.9355 12.013 19.1927 12.9896 18.9844 14.1484L18.9062 14.7148H15.2539L15.332 14.2559C15.3255 13.8262 15.2637 13.4681 15.1465 13.1816C15.0358 12.8887 14.7819 12.7422 14.3848 12.7422C13.9876 12.7422 13.7012 12.8496 13.5254 13.0645C13.3561 13.2728 13.2552 13.5592 13.2227 13.9238C13.1836 14.1842 13.2357 14.4447 13.3789 14.7051C13.5221 14.959 14.0462 15.265 14.9512 15.623C16.071 16.1048 16.9499 16.7201 17.5879 17.4688C18.2324 18.2109 18.4473 19.2298 18.2324 20.5254C17.998 21.9707 17.3633 23.0384 16.3281 23.7285C15.293 24.4121 14.0202 24.7539 12.5098 24.7539C11.0254 24.7539 9.86328 24.4056 9.02344 23.709C8.18359 23.0124 7.8776 21.9577 8.10547 20.5449ZM18.9258 21.3359C19.0885 20.2617 19.5703 19.4316 20.3711 18.8457C21.1719 18.2598 22.2884 17.9668 23.7207 17.9668H25.0488L25.166 16.5215C25.2116 16.1309 25.1758 15.8477 25.0586 15.6719C24.9479 15.4961 24.7689 15.4082 24.5215 15.4082C24.2415 15.4082 24.0234 15.5091 23.8672 15.7109C23.7174 15.9128 23.623 16.2253 23.584 16.6484L23.5449 17.0195L20 17.0098L20.0195 16.6973C20.1693 15.6556 20.6966 14.8092 21.6016 14.1582C22.513 13.5072 23.6589 13.1816 25.0391 13.1816C26.3737 13.1816 27.3991 13.4714 28.1152 14.0508C28.8314 14.6237 29.0853 15.5742 28.877 16.9023L28.1445 22.6445C28.0859 22.9961 28.0664 23.3216 28.0859 23.6211C28.1055 23.9206 28.1543 24.168 28.2324 24.3633L28.2031 24.5098H24.4824C24.4434 24.373 24.4206 24.1908 24.4141 23.9629C24.4076 23.7285 24.4043 23.5137 24.4043 23.3184C24.1504 23.6374 23.7728 23.9434 23.2715 24.2363C22.7767 24.5293 22.1549 24.6758 21.4062 24.6758C20.5469 24.6758 19.8763 24.4089 19.3945 23.875C18.9128 23.3346 18.7565 22.4883 18.9258 21.3359ZM22.7148 21.0234C22.6562 21.6419 22.7116 22.0553 22.8809 22.2637C23.0501 22.472 23.2422 22.5762 23.457 22.5762C23.7109 22.5762 23.9551 22.4297 24.1895 22.1367C24.4303 21.8372 24.5736 21.4792 24.6191 21.0625L24.7461 19.5879H23.9355C23.6296 19.5879 23.3626 19.6888 23.1348 19.8906C22.9134 20.0924 22.7734 20.4701 22.7148 21.0234ZM29.4238 24.5L30.9961 13.4746H34.6973L34.5801 14.4316C34.7884 14.1517 35.1432 13.8848 35.6445 13.6309C36.1523 13.377 36.7773 13.25 37.5195 13.25C38.3203 13.25 38.9811 13.4941 39.502 13.9824C40.0293 14.4707 40.1888 15.3496 39.9805 16.6191L38.9355 24.5H35.2051L36.2012 16.8438C36.2467 16.5052 36.1947 16.2643 36.0449 16.1211C35.8952 15.9714 35.6738 15.8965 35.3809 15.8965C35.1009 15.8965 34.8503 15.9746 34.6289 16.1309C34.4141 16.2871 34.2643 16.4727 34.1797 16.6875L33.1641 24.5H29.4238ZM40.791 16.1992L41.2793 13.4746H46.9238L46.4355 16.1992H40.791ZM41.0254 21.1406L41.8945 14.2852L42.0117 14.1582L42.4707 11.5605H46.0645L44.7754 20.6816C44.7168 21.2285 44.7233 21.6126 44.7949 21.834C44.873 22.0488 45.0326 22.1562 45.2734 22.1562C45.3646 22.1562 45.4427 22.1497 45.5078 22.1367C45.5729 22.1172 45.651 22.0911 45.7422 22.0586L45.293 24.4609C45.1107 24.5521 44.8991 24.6204 44.6582 24.666C44.4238 24.7116 44.1471 24.7344 43.8281 24.7344C42.793 24.7344 42.0182 24.4414 41.5039 23.8555C40.9961 23.2695 40.8366 22.3646 41.0254 21.1406ZM46.9824 19.1289L47.041 18.7285C47.2949 17.0033 47.9264 15.6458 48.9355 14.6562C49.9447 13.6602 51.1784 13.1621 52.6367 13.1621C54.1081 13.1621 55.1758 13.6536 55.8398 14.6367C56.5039 15.6198 56.6992 16.9935 56.4258 18.7578L56.25 19.627H49.2383L49.502 18.2695H53.0078L53.0664 18.1816C53.125 17.3743 53.1152 16.7559 53.0371 16.3262C52.9655 15.89 52.6335 15.6719 52.041 15.6719C51.709 15.6719 51.4355 15.8867 51.2207 16.3164C51.0059 16.7461 50.8561 17.3678 50.7715 18.1816L50.5273 19.7344C50.4492 20.5286 50.485 21.1374 50.6348 21.5605C50.7845 21.9837 51.084 22.1953 51.5332 22.1953C51.8262 22.1953 52.0996 22.1107 52.3535 21.9414C52.6139 21.7656 52.8288 21.528 52.998 21.2285L55.9473 22.1367C55.6608 22.8854 55.1042 23.5137 54.2773 24.0215C53.4505 24.5228 52.3958 24.7734 51.1133 24.7734C49.5508 24.7734 48.4082 24.2786 47.6855 23.2891C46.9629 22.2995 46.7285 20.9128 46.9824 19.1289ZM56.6699 24.5L59.0039 9.8125H62.7246L61.7676 14.9199C62.0085 14.5163 62.3438 14.1387 62.7734 13.7871C63.2031 13.429 63.8444 13.25 64.6973 13.25C65.5827 13.25 66.276 13.5007 66.7773 14.002C67.2852 14.4967 67.4544 15.2454 67.2852 16.248L66.1816 24.5H62.4512L63.4473 16.873C63.4798 16.5605 63.4082 16.3197 63.2324 16.1504C63.0632 15.9811 62.9199 15.8965 62.8027 15.8965C62.4121 15.8965 62.0931 16.0234 61.8457 16.2773C61.6048 16.5312 61.4486 16.7917 61.377 17.0586L60.4102 24.5H56.6699ZM67.9395 24.5L70.2051 10.2812H75.5469C77.0052 10.2812 78.0534 10.7012 78.6914 11.541C79.3294 12.3743 79.5117 13.6276 79.2383 15.3008C78.9648 16.9609 78.3626 18.2077 77.4316 19.041C76.5072 19.8743 75.293 20.291 73.7891 20.291H72.3926L71.7578 24.5H67.9395ZM72.8906 17.6055H73.7695C74.2643 17.6055 74.6387 17.4557 74.8926 17.1562C75.1465 16.8503 75.3353 16.2448 75.459 15.3398C75.5827 14.4674 75.5534 13.875 75.3711 13.5625C75.1953 13.2435 74.86 13.084 74.3652 13.084H73.4961L72.8906 17.6055ZM79.0723 24.5L80.6445 13.4746H84.3359L84.2188 14.2852H84.248C84.4368 13.9661 84.6875 13.7122 85 13.5234C85.3125 13.3281 85.6217 13.2305 85.9277 13.2305C86.0905 13.2305 86.224 13.2402 86.3281 13.2598C86.4388 13.2793 86.5365 13.3151 86.6211 13.3672L86.0645 16.3457C85.9603 16.3001 85.8561 16.2643 85.752 16.2383C85.6478 16.2122 85.5111 16.1992 85.3418 16.1992C85.1139 16.1992 84.8535 16.3001 84.5605 16.502C84.2676 16.6973 84.0365 16.9642 83.8672 17.3027L82.9688 24.5H79.0723ZM86.3379 19.1289L86.3965 18.7188C86.6569 16.9479 87.3079 15.5807 88.3496 14.6172C89.3978 13.6471 90.6348 13.1621 92.0605 13.1621C93.4863 13.1621 94.5866 13.6471 95.3613 14.6172C96.1426 15.5807 96.403 16.9479 96.1426 18.7188L96.084 19.1289C95.8236 20.9323 95.166 22.3223 94.1113 23.2988C93.0632 24.2754 91.8262 24.7637 90.4004 24.7637C88.9746 24.7637 87.8743 24.2754 87.0996 23.2988C86.3314 22.3223 86.0775 20.9323 86.3379 19.1289ZM90.2734 18.1719L90.0195 19.793C89.9414 20.7109 89.9707 21.3229 90.1074 21.6289C90.2441 21.9284 90.5078 22.0781 90.8984 22.0781C91.2826 22.0781 91.5723 21.9284 91.7676 21.6289C91.9629 21.3229 92.0996 20.7142 92.1777 19.8027L92.4316 18.1719C92.5163 17.293 92.487 16.6908 92.3438 16.3652C92.207 16.0397 91.9466 15.877 91.5625 15.877C91.1719 15.877 90.8789 16.0397 90.6836 16.3652C90.4883 16.6908 90.3516 17.293 90.2734 18.1719Z" fill="black"/>
</svg>
