<svg width="14" height="14" viewBox="0 0 14 14" fill="none" xmlns="http://www.w3.org/2000/svg">
<path fill-rule="evenodd" clip-rule="evenodd" d="M6.05937 11.8486C2.94241 11.8486 0.415619 9.24365 0.415619 6.03028C0.415619 2.81689 2.94241 0.211926 6.05937 0.211926C9.17632 0.211926 11.7031 2.81689 11.7031 6.03028C11.7031 7.28687 11.3167 8.45044 10.6597 9.40152L13.3089 12.1327L11.9786 13.504L9.32945 10.7729C8.40691 11.4503 7.27826 11.8486 6.05937 11.8486ZM6.05937 9.90918C8.13734 9.90918 9.82187 8.17253 9.82187 6.03028C9.82187 3.88802 8.13734 2.15138 6.05937 2.15138C3.9814 2.15138 2.29687 3.88802 2.29687 6.03028C2.29687 8.17253 3.9814 9.90918 6.05937 9.90918Z" fill="black" fill-opacity="0.4"/>
</svg>
